<?xml version="1.0" encoding="utf-8"?>
<!-- Generator: Adobe Illustrator 16.0.0, SVG Export Plug-In . SVG Version: 6.00 Build 0)  -->
<!DOCTYPE svg PUBLIC "-//W3C//DTD SVG 1.1//EN" "http://www.w3.org/Graphics/SVG/1.1/DTD/svg11.dtd">
<svg version="1.1" id="Layer_1" xmlns="http://www.w3.org/2000/svg" xmlns:xlink="http://www.w3.org/1999/xlink" x="0px" y="0px"
	 width="501.649px" height="64.806px" viewBox="-5.602 -5.032 501.649 64.806"
	 enable-background="new -5.602 -5.032 501.649 64.806" xml:space="preserve">
<path fill="#414042" d="M76.201,6.938h7.084v25.607h13.123v6.543H76.2L76.201,6.938L76.201,6.938z"/>
<path fill="#414042" d="M99.032,10.075c0.005-2.176,1.772-3.936,3.948-3.931c2.175,0.005,3.935,1.772,3.93,3.948
	s-1.772,3.936-3.948,3.93c-1.042-0.002-2.04-0.417-2.776-1.153C99.434,12.135,99.017,11.125,99.032,10.075z M99.573,17.024h6.814
	v22.064h-6.814V17.024z"/>
<path fill="#414042" d="M134.445,37.223c0,4.171-1.052,7.341-3.155,9.51s-5.306,3.251-9.608,3.245
	c-1.957,0.002-3.907-0.22-5.813-0.658c-1.925-0.445-3.725-1.32-5.264-2.561l3.767-5.634c1.009,0.849,2.132,1.553,3.335,2.092
	c1.212,0.523,2.52,0.787,3.84,0.774c2.091,0,3.605-0.514,4.606-1.522c0.99-1.047,1.522-2.444,1.478-3.885v-2.137h-0.054
	c-0.735,1.021-1.753,1.806-2.929,2.254c-1.049,0.413-2.163,0.636-3.29,0.657c-1.525,0.021-3.039-0.265-4.452-0.838
	c-1.292-0.543-2.458-1.348-3.425-2.361c-0.97-1.041-1.718-2.269-2.199-3.605c-0.528-1.468-0.791-3.019-0.775-4.579
	c-0.001-1.453,0.237-2.896,0.703-4.271c0.441-1.336,1.119-2.582,2.001-3.678c0.864-1.063,1.938-1.938,3.155-2.568
	c1.306-0.663,2.754-0.997,4.218-0.975c0.911-0.011,1.82,0.096,2.704,0.316c0.746,0.192,1.468,0.468,2.154,0.82
	c0.59,0.301,1.141,0.674,1.641,1.108c0.405,0.36,0.768,0.767,1.082,1.208h0.099v-2.929h6.309L134.445,37.223z M117.32,27.912
	c-0.002,0.711,0.135,1.415,0.405,2.073c0.268,0.644,0.66,1.229,1.154,1.721c0.505,0.497,1.09,0.905,1.73,1.208
	c0.677,0.305,1.412,0.459,2.154,0.451c0.736,0.003,1.464-0.151,2.136-0.451c0.649-0.297,1.241-0.706,1.749-1.208
	c0.494-0.492,0.886-1.077,1.154-1.721c0.548-1.325,0.548-2.813,0-4.139c-0.268-0.644-0.66-1.229-1.154-1.721
	c-0.505-0.504-1.098-0.914-1.749-1.208c-0.672-0.3-1.4-0.454-2.136-0.451c-0.742-0.008-1.478,0.146-2.154,0.451
	c-0.643,0.299-1.228,0.708-1.73,1.208c-0.494,0.492-0.886,1.077-1.154,1.721c-0.281,0.652-0.431,1.354-0.441,2.064L117.32,27.912
	L117.32,27.912z"/>
<path fill="#414042" d="M146.703,4.766v15.25h0.09c0.173-0.468,0.434-0.898,0.766-1.271c0.381-0.44,0.825-0.823,1.316-1.137
	c0.561-0.354,1.167-0.631,1.803-0.819c0.738-0.215,1.503-0.321,2.271-0.315c1.433-0.055,2.86,0.216,4.173,0.793
	c1.013,0.495,1.871,1.259,2.479,2.208c0.617,1.012,1.024,2.137,1.199,3.309c0.216,1.368,0.322,2.752,0.315,4.137v12.167h-6.805
	V28.273c0-0.641,0-1.299-0.072-1.975c-0.036-0.645-0.173-1.281-0.405-1.884c-0.442-1.286-1.712-2.098-3.064-1.956
	c-0.742-0.031-1.479,0.134-2.136,0.478c-0.521,0.303-0.947,0.746-1.226,1.28c-0.298,0.562-0.491,1.172-0.568,1.803
	c-0.092,0.693-0.137,1.393-0.135,2.092v10.978h-6.814V4.766H146.703L146.703,4.766z"/>
<path fill="#414042" d="M180.971,22.468h-5.985v7.354c-0.004,0.555,0.026,1.107,0.09,1.659c0.04,0.454,0.179,0.894,0.406,1.288
	c0.225,0.38,0.566,0.677,0.973,0.848c0.558,0.211,1.152,0.309,1.749,0.288c0.479-0.008,0.958-0.044,1.433-0.107
	c0.487-0.038,0.951-0.221,1.334-0.522v5.67c-0.762,0.278-1.555,0.464-2.361,0.55c-0.799,0.089-1.603,0.135-2.407,0.135
	c-1.068,0.011-2.134-0.109-3.172-0.359c-0.916-0.218-1.779-0.612-2.542-1.163c-0.735-0.531-1.321-1.241-1.704-2.063
	c-0.432-0.969-0.642-2.021-0.613-3.083V22.47h-4.362v-5.408h4.326v-6.544h6.814v6.49h5.985L180.971,22.468z"/>
<path fill="#414042" d="M184.424,17.006h6.542v2.992h0.09c0.24-0.464,0.543-0.893,0.901-1.271c0.416-0.438,0.89-0.82,1.406-1.136
	c0.586-0.348,1.213-0.624,1.866-0.82c0.736-0.215,1.502-0.32,2.271-0.314c1.433-0.057,2.86,0.216,4.173,0.793
	c1.016,0.493,1.873,1.257,2.479,2.208c0.616,1.011,1.024,2.136,1.198,3.308c0.222,1.368,0.326,2.752,0.315,4.138v12.168h-6.805
	V28.254c0-0.64,0-1.297-0.072-1.974c-0.036-0.646-0.173-1.281-0.405-1.885c-0.441-1.285-1.713-2.097-3.064-1.956
	c-0.741-0.028-1.479,0.136-2.137,0.479c-0.524,0.299-0.955,0.74-1.243,1.271c-0.298,0.562-0.491,1.173-0.568,1.804
	c-0.092,0.692-0.137,1.392-0.135,2.091v11.005h-6.814L184.424,17.006L184.424,17.006z"/>
<path fill="#414042" d="M210.03,10.075c0.005-2.176,1.772-3.936,3.948-3.931c2.175,0.005,3.935,1.772,3.93,3.948
	s-1.771,3.936-3.948,3.93c-1.042-0.002-2.04-0.417-2.776-1.153C210.432,12.135,210.016,11.125,210.03,10.075z M210.571,17.024h6.813
	v22.064h-6.813V17.024z"/>
<path fill="#414042" d="M222.288,17.006h6.535v2.992h0.09c0.24-0.463,0.543-0.893,0.901-1.271c0.416-0.438,0.889-0.82,1.406-1.136
	c0.586-0.348,1.213-0.624,1.865-0.82c0.738-0.215,1.504-0.32,2.271-0.314c1.433-0.055,2.859,0.217,4.173,0.793
	c1.015,0.493,1.873,1.257,2.479,2.208c0.616,1.011,1.023,2.136,1.198,3.308c0.218,1.369,0.322,2.752,0.316,4.138v12.168h-6.796
	V28.254c0-0.64,0-1.297-0.072-1.974c-0.036-0.646-0.173-1.281-0.406-1.885c-0.441-1.285-1.712-2.097-3.064-1.956
	c-0.741-0.03-1.478,0.135-2.135,0.479c-0.527,0.297-0.959,0.738-1.244,1.271c-0.299,0.562-0.491,1.173-0.568,1.804
	c-0.092,0.692-0.137,1.392-0.135,2.091v11.005h-6.814L222.288,17.006L222.288,17.006z"/>
<path fill="#414042" d="M271.501,37.223c0,4.171-1.052,7.341-3.153,9.51c-2.102,2.163-5.311,3.245-9.601,3.245
	c-1.957,0.003-3.907-0.219-5.813-0.658c-1.927-0.442-3.728-1.318-5.265-2.561l3.769-5.634c1.008,0.852,2.13,1.555,3.335,2.092
	c1.208,0.524,2.514,0.788,3.83,0.774c2.092,0,3.604-0.514,4.614-1.522c0.992-1.045,1.522-2.444,1.47-3.885v-2.137h-0.107
	c-0.733,1.022-1.752,1.808-2.93,2.254c-1.049,0.413-2.163,0.636-3.29,0.657c-1.522,0.021-3.033-0.264-4.443-0.838
	c-1.296-0.54-2.466-1.346-3.434-2.361c-0.967-1.043-1.715-2.27-2.199-3.605c-1.014-2.858-1.036-5.977-0.063-8.851
	c0.438-1.335,1.111-2.581,1.991-3.678c0.867-1.06,1.94-1.934,3.154-2.568c1.309-0.664,2.76-0.998,4.228-0.975
	c0.894-0.007,1.783,0.1,2.649,0.316c0.749,0.194,1.474,0.469,2.163,0.82c0.587,0.302,1.135,0.674,1.632,1.108
	c0.408,0.36,0.773,0.766,1.091,1.208h0.09v-2.929h6.265L271.501,37.223z M254.376,27.912c-0.013,1.425,0.553,2.794,1.568,3.794
	c0.499,0.499,1.082,0.908,1.721,1.208c0.678,0.305,1.412,0.459,2.154,0.451c0.736,0.003,1.465-0.151,2.137-0.451
	c0.65-0.295,1.242-0.704,1.748-1.208c2.094-2.074,2.108-5.452,0.034-7.545c-0.011-0.013-0.022-0.023-0.034-0.034
	c-0.504-0.506-1.097-0.916-1.748-1.208c-0.672-0.3-1.399-0.454-2.137-0.451c-0.742-0.008-1.478,0.146-2.154,0.451
	c-0.641,0.297-1.224,0.706-1.721,1.208C254.932,25.124,254.365,26.49,254.376,27.912z"/>
<path fill="#414042" d="M277.945,6.938h11.213c2.019-0.031,4.031,0.229,5.976,0.775c1.579,0.453,3.078,1.149,4.443,2.063
	c1.204,0.811,2.264,1.815,3.137,2.975c0.799,1.064,1.461,2.224,1.975,3.452c0.472,1.141,0.821,2.328,1.046,3.542
	c0.198,1.076,0.304,2.168,0.314,3.263c0.003,2.046-0.382,4.074-1.136,5.977c-0.76,1.931-1.91,3.683-3.38,5.146
	c-1.575,1.563-3.452,2.79-5.517,3.605c-2.417,0.954-4.999,1.42-7.599,1.37h-10.474L277.945,6.938L277.945,6.938z M282.308,35.032
	h5.488c1.776,0.014,3.544-0.238,5.246-0.748c1.577-0.459,3.05-1.221,4.335-2.244c1.253-1.014,2.264-2.295,2.956-3.75
	c0.753-1.645,1.122-3.438,1.082-5.245c-0.023-1.217-0.189-2.427-0.496-3.605c-0.355-1.423-0.997-2.76-1.884-3.93
	c-1.029-1.324-2.341-2.402-3.84-3.155c-1.983-0.934-4.163-1.375-6.354-1.289h-6.534L282.308,35.032L282.308,35.032z"/>
<path fill="#414042" d="M311.357,20.197c1.158-1.058,2.52-1.867,4.002-2.38c1.446-0.518,2.971-0.785,4.507-0.793
	c1.378-0.032,2.752,0.166,4.064,0.587c1.027,0.337,1.979,0.876,2.795,1.586c0.703,0.635,1.255,1.42,1.612,2.298
	c0.347,0.858,0.523,1.776,0.522,2.704v10.987c0,0.757,0,1.46,0,2.091s0.072,1.244,0.135,1.803h-3.604
	c-0.092-1.087-0.137-2.178-0.137-3.271h-0.09c-0.771,1.27-1.893,2.292-3.227,2.946c-1.354,0.612-2.824,0.92-4.31,0.901
	c-0.97,0.004-1.936-0.133-2.865-0.405c-0.864-0.254-1.673-0.67-2.381-1.227c-0.681-0.545-1.23-1.234-1.612-2.02
	c-0.408-0.874-0.608-1.83-0.586-2.794c-0.055-1.229,0.26-2.447,0.9-3.497c0.646-0.961,1.521-1.747,2.542-2.29
	c1.178-0.63,2.45-1.062,3.769-1.279c1.521-0.26,3.063-0.386,4.604-0.379h3.002v-0.9c-0.018-1.159-0.472-2.271-1.271-3.109
	c-0.451-0.458-0.995-0.815-1.595-1.045c-0.727-0.272-1.497-0.404-2.271-0.388c-0.694-0.008-1.388,0.068-2.063,0.225
	c-0.555,0.142-1.094,0.332-1.613,0.568c-0.465,0.223-0.905,0.49-1.315,0.802l-1.136,0.901L311.357,20.197z M322.895,28.723
	c-0.994,0.002-1.986,0.057-2.976,0.163c-0.943,0.089-1.873,0.294-2.767,0.612c-0.772,0.258-1.474,0.693-2.046,1.271
	c-0.536,0.558-0.822,1.309-0.794,2.082c-0.098,1.059,0.378,2.088,1.244,2.702c1.027,0.591,2.204,0.872,3.389,0.813
	c0.982,0.028,1.96-0.166,2.856-0.567c0.739-0.34,1.394-0.842,1.911-1.47c0.479-0.599,0.831-1.289,1.036-2.027
	c0.213-0.714,0.322-1.455,0.324-2.198v-1.381H322.895z"/>
<path fill="#414042" d="M346.274,22.964c-0.499-0.615-1.11-1.129-1.802-1.515c-0.803-0.434-1.704-0.646-2.614-0.613
	c-0.878-0.024-1.746,0.187-2.516,0.613c-0.679,0.341-1.097,1.044-1.071,1.803c-0.021,0.577,0.2,1.136,0.611,1.542
	c0.426,0.404,0.92,0.728,1.46,0.955c0.578,0.25,1.185,0.431,1.804,0.541l1.632,0.314c0.84,0.202,1.665,0.46,2.47,0.775
	c0.729,0.276,1.406,0.676,2.001,1.181c0.565,0.497,1.016,1.113,1.315,1.804c0.337,0.805,0.5,1.671,0.478,2.542
	c0.03,1.091-0.236,2.169-0.773,3.118c-0.501,0.842-1.183,1.562-1.992,2.108c-0.854,0.559-1.8,0.957-2.794,1.182
	c-1.034,0.239-2.093,0.36-3.155,0.359c-1.604,0.034-3.198-0.244-4.695-0.819c-1.461-0.637-2.711-1.675-3.604-2.992l3.092-2.541
	c0.667,0.684,1.411,1.288,2.217,1.802c0.906,0.539,1.947,0.808,3.002,0.775c0.526-0.001,1.053-0.057,1.568-0.162
	c0.491-0.091,0.966-0.258,1.405-0.496c0.396-0.225,0.736-0.531,1.001-0.901c0.253-0.348,0.386-0.769,0.378-1.198
	c0.019-0.558-0.187-1.099-0.567-1.505c-0.39-0.388-0.853-0.693-1.36-0.9c-0.541-0.23-1.104-0.411-1.677-0.541
	c-0.596-0.137-1.108-0.253-1.567-0.343c-0.901-0.217-1.713-0.45-2.497-0.729c-0.748-0.253-1.453-0.617-2.091-1.082
	c-0.604-0.464-1.101-1.056-1.451-1.73c-0.386-0.807-0.57-1.693-0.541-2.587c-0.024-1.021,0.218-2.031,0.703-2.929
	c0.458-0.817,1.093-1.522,1.855-2.064c0.801-0.562,1.695-0.977,2.643-1.226c0.958-0.297,1.952-0.464,2.955-0.496
	c1.435-0.004,2.854,0.271,4.183,0.811c1.322,0.536,2.435,1.484,3.173,2.704L346.274,22.964z"/>
<path fill="#414042" d="M354.99,4.766h4.083v16.116h0.091c0.565-1.206,1.518-2.189,2.704-2.794c1.341-0.735,2.852-1.107,4.38-1.082
	c1.011-0.004,2.016,0.154,2.976,0.469c0.929,0.308,1.78,0.812,2.496,1.479c0.748,0.722,1.329,1.599,1.703,2.568
	c0.446,1.181,0.66,2.436,0.632,3.695v13.871h-4.083V26.371c0.021-0.871-0.117-1.738-0.405-2.561
	c-0.234-0.648-0.606-1.239-1.091-1.73c-0.444-0.433-0.98-0.758-1.568-0.955c-0.583-0.188-1.19-0.286-1.803-0.289
	c-0.806-0.007-1.604,0.13-2.361,0.406c-0.729,0.272-1.382,0.719-1.902,1.298c-0.583,0.646-1.018,1.412-1.271,2.244
	c-0.326,1.044-0.481,2.133-0.46,3.227v11.077h-4.083L354.99,4.766z"/>
<path fill="#414042" d="M380.236,4.766h4.083v15.892h0.091c0.763-1.183,1.848-2.12,3.127-2.704c1.363-0.647,2.854-0.98,4.363-0.974
	c1.544-0.021,3.077,0.271,4.506,0.856c1.306,0.545,2.482,1.359,3.452,2.389c0.971,1.04,1.719,2.268,2.199,3.605
	c0.53,1.441,0.794,2.97,0.774,4.507c0.015,1.517-0.249,3.021-0.774,4.443c-0.486,1.335-1.234,2.561-2.199,3.604
	c-0.962,1.043-2.141,1.864-3.452,2.406c-1.425,0.605-2.958,0.912-4.507,0.901c-1.468-0.003-2.917-0.329-4.245-0.956
	c-1.313-0.58-2.438-1.518-3.244-2.703h-0.091v3.091h-4.083V4.766L380.236,4.766z M391.404,35.817
	c1.011,0.015,2.014-0.18,2.947-0.567c0.841-0.354,1.6-0.879,2.227-1.542c0.623-0.684,1.103-1.487,1.405-2.361
	c0.661-1.959,0.661-4.08,0-6.039c-0.302-0.875-0.78-1.679-1.405-2.36c-0.627-0.663-1.386-1.188-2.227-1.542
	c-1.896-0.758-4.01-0.758-5.903,0c-0.84,0.354-1.598,0.88-2.227,1.542c-0.625,0.683-1.104,1.485-1.406,2.36
	c-0.661,1.958-0.661,4.08,0,6.039c0.305,0.874,0.783,1.679,1.406,2.361c0.629,0.661,1.387,1.187,2.227,1.542
	C389.384,35.638,390.391,35.831,391.404,35.817L391.404,35.817z"/>
<path fill="#414042" d="M406.925,28.326c-0.005-1.516,0.303-3.017,0.901-4.407c0.576-1.345,1.402-2.568,2.434-3.605
	c4.503-4.425,11.723-4.425,16.225,0c1.032,1.038,1.856,2.262,2.434,3.605c0.602,1.392,0.907,2.892,0.901,4.407
	c0.021,3.009-1.176,5.897-3.316,8.013c-1.04,1.021-2.264,1.838-3.604,2.407c-2.889,1.185-6.126,1.185-9.015,0
	c-1.342-0.569-2.563-1.386-3.604-2.407c-2.141-2.114-3.337-5.004-3.317-8.013H406.925z M411.287,28.326
	c-0.011,1.028,0.156,2.05,0.496,3.02c0.305,0.874,0.783,1.679,1.406,2.361c0.627,0.663,1.385,1.188,2.226,1.542
	c1.896,0.757,4.009,0.757,5.904,0c0.84-0.356,1.598-0.881,2.227-1.542c0.623-0.684,1.102-1.487,1.405-2.361
	c0.661-1.959,0.661-4.08,0-6.039c-0.302-0.875-0.78-1.679-1.405-2.36c-0.629-0.661-1.387-1.187-2.227-1.542
	c-1.896-0.758-4.009-0.758-5.904,0c-0.841,0.354-1.599,0.878-2.226,1.542c-0.625,0.683-1.104,1.485-1.406,2.36
	C411.443,26.278,411.275,27.299,411.287,28.326z"/>
<path fill="#414042" d="M435.028,20.197c1.155-1.058,2.514-1.867,3.993-2.38c1.445-0.516,2.97-0.784,4.507-0.793
	c1.378-0.032,2.752,0.166,4.063,0.587c1.027,0.337,1.979,0.876,2.794,1.586c0.729,0.633,1.299,1.426,1.668,2.315
	c0.352,0.858,0.528,1.777,0.522,2.704v10.987c0,0.758,0,1.461,0.045,2.092s0.081,1.243,0.136,1.803h-3.604
	c-0.091-1.088-0.136-2.179-0.136-3.271h-0.091c-0.77,1.27-1.886,2.292-3.218,2.947c-1.354,0.612-2.829,0.921-4.316,0.9
	c-0.968,0.005-1.931-0.132-2.857-0.404c-0.865-0.257-1.676-0.672-2.388-1.227c-0.68-0.546-1.228-1.234-1.604-2.02
	c-0.412-0.872-0.615-1.829-0.596-2.794c-0.054-1.229,0.26-2.447,0.9-3.497c0.646-0.961,1.521-1.747,2.543-2.289
	c1.182-0.63,2.456-1.062,3.775-1.28c1.521-0.26,3.063-0.386,4.606-0.378h2.991v-0.901c-0.007-1.162-0.463-2.274-1.271-3.109
	c-0.45-0.454-0.991-0.812-1.587-1.045c-0.727-0.271-1.496-0.401-2.271-0.388c-0.693-0.007-1.387,0.068-2.063,0.225
	c-0.554,0.141-1.095,0.33-1.613,0.568c-0.466,0.221-0.907,0.489-1.315,0.802l-1.137,0.901L435.028,20.197z M446.557,28.723
	c-0.991,0.002-1.98,0.057-2.967,0.163c-0.946,0.091-1.879,0.295-2.775,0.612c-0.77,0.258-1.468,0.693-2.036,1.271
	c-0.538,0.557-0.827,1.308-0.803,2.082c-0.096,1.06,0.383,2.09,1.253,2.702c1.023,0.593,2.197,0.873,3.38,0.813
	c0.985,0.027,1.965-0.167,2.866-0.567c0.735-0.341,1.386-0.844,1.901-1.47c0.487-0.589,0.853-1.269,1.072-2.001
	c0.205-0.715,0.312-1.455,0.314-2.199v-1.406H446.557z"/>
<path fill="#414042" d="M458.499,17.564h4.083v3.317h0.1c0.271-0.579,0.638-1.108,1.081-1.568c0.453-0.467,0.967-0.873,1.523-1.208
	c0.567-0.334,1.173-0.6,1.803-0.793c0.65-0.188,1.323-0.286,2.001-0.289c0.611-0.007,1.221,0.084,1.803,0.271l-0.181,4.397
	c-0.334-0.09-0.667-0.162-1.001-0.226c-0.327-0.056-0.659-0.086-0.991-0.09c-1.696-0.116-3.363,0.494-4.588,1.676
	c-1.063,1.13-1.595,2.872-1.595,5.229v10.815h-4.083L458.499,17.564z"/>
<path fill="#414042" d="M496.048,39.088h-4.092v-3.091h-0.09c-0.809,1.188-1.933,2.123-3.245,2.704
	c-1.327,0.627-2.776,0.953-4.245,0.955c-1.548,0.01-3.081-0.297-4.507-0.901c-1.311-0.544-2.488-1.365-3.452-2.406
	c-0.965-1.045-1.712-2.27-2.199-3.604c-0.525-1.422-0.789-2.928-0.774-4.443c-0.019-1.537,0.245-3.063,0.774-4.507
	c0.48-1.339,1.229-2.565,2.199-3.605c0.974-1.026,2.148-1.841,3.452-2.389c1.43-0.584,2.962-0.875,4.507-0.855
	c1.509-0.01,3,0.323,4.362,0.973c1.28,0.584,2.365,1.521,3.128,2.704h0.09V4.767h4.092V39.088z M484.881,35.817
	c1.012,0.016,2.016-0.179,2.947-0.567c0.841-0.354,1.601-0.879,2.228-1.542c0.623-0.684,1.101-1.487,1.404-2.361
	c0.661-1.959,0.661-4.08,0-6.039c-0.302-0.875-0.779-1.679-1.404-2.36c-0.627-0.663-1.387-1.188-2.228-1.542
	c-0.933-0.391-1.937-0.583-2.947-0.568c-1.015-0.015-2.021,0.179-2.957,0.568c-0.84,0.354-1.598,0.88-2.226,1.542
	c-0.625,0.683-1.104,1.485-1.406,2.36c-0.661,1.958-0.661,4.08,0,6.039c0.306,0.874,0.783,1.679,1.406,2.361
	c0.628,0.661,1.386,1.187,2.226,1.542C482.86,35.638,483.866,35.831,484.881,35.817z"/>
<path fill="#fec32b" d="M26.755-5.032C8.859-5.007-5.627,9.52-5.602,27.416C-5.577,45.313,8.95,59.799,26.846,59.774
	c17.878-0.024,32.357-14.524,32.357-32.402C59.178,9.468,44.658-5.032,26.755-5.032z M2.482,27.371
	c-0.003-8.014,3.954-15.51,10.572-20.027l8.112,10.347l-7.958-1.803l13.124,16.945l-7.959-1.803l19.072,18.144
	c-12.043,5.899-26.588,0.918-32.487-11.125C3.329,34.725,2.483,31.073,2.482,27.371z M38.274,48.741l-6.625-11.456l5.715,0.839
	l-7.662-14.701l5.895,0.901L23.023,3.377c1.226-0.186,2.464-0.278,3.705-0.279C40.133,3.093,51.005,13.955,51.01,27.362
	c0.003,8.932-4.899,17.144-12.763,21.379L38.274,48.741L38.274,48.741z"/>
</svg>
